<svg height="512pt" viewBox="0 0 512 512" width="512pt" xmlns="http://www.w3.org/2000/svg"><path d="m497 241h-16.503906c-7.339844-112.269531-97.042969-202.144531-209.496094-209.496094v-16.503906c0-8.285156-6.714844-15-15-15s-15 6.714844-15 15v16.503906c-112.269531 7.339844-202.144531 97.042969-209.496094 209.496094h-16.503906c-8.285156 0-15 6.714844-15 15s6.714844 15 15 15h16.503906c7.339844 112.269531 97.042969 202.144531 209.496094 209.496094v16.503906c0 8.285156 6.714844 15 15 15s15-6.714844 15-15v-16.503906c112.269531-7.339844 202.144531-97.042969 209.496094-209.496094h16.503906c8.285156 0 15-6.714844 15-15s-6.714844-15-15-15zm-226 209.429688v-14.429688c0-8.285156-6.714844-15-15-15s-15 6.714844-15 15v14.429688c-95.589844-7.308594-172.121094-83.839844-179.429688-179.429688h14.429688c8.285156 0 15-6.714844 15-15s-6.714844-15-15-15h-14.429688c7.308594-95.589844 83.839844-172.121094 179.429688-179.429688v14.429688c0 8.285156 6.714844 15 15 15s15-6.714844 15-15v-14.429688c95.589844 7.308594 172.121094 83.839844 179.429688 179.429688h-14.429688c-8.285156 0-15 6.714844-15 15s6.714844 14.988281 15 14.988281h14.429688c-7.308594 95.59375-83.839844 172.132813-179.429688 179.441407zm0 0"/><path d="m256 121c-74.4375 0-135 60.5625-135 135s60.5625 135 135 135 135-60.5625 135-135-60.5625-135-135-135zm0 240c-57.898438 0-105-47.101562-105-105s47.101562-105 105-105 105 47.101562 105 105-47.101562 105-105 105zm0 0"/><path d="m316 241h-45v-45c0-8.285156-6.714844-15-15-15s-15 6.714844-15 15v60c0 8.285156 6.714844 15 15 15h60c8.285156 0 15-6.714844 15-15s-6.714844-15-15-15zm0 0"/></svg>