<svg height="512pt" viewBox="0 0 512 512" width="512pt" xmlns="http://www.w3.org/2000/svg"><path d="m256 31c-124.199219 0-225 100.800781-225 225s100.800781 225 225 225 225-100.800781 225-225-100.800781-225-225-225zm0 420c-107.402344 0-195-87.601562-195-195 0-107.402344 87.597656-195 195-195s195 87.597656 195 195c0 107.398438-87.597656 195-195 195zm0 0" fill="#00607f"/><path d="m481 256c0 124.199219-100.800781 225-225 225v-30c107.402344 0 195-87.601562 195-195 0-107.402344-87.597656-195-195-195v-30c124.199219 0 225 100.800781 225 225zm0 0" fill="#002c3c"/><path d="m256 121c-74.398438 0-135 60.597656-135 135 0 74.398438 60.601562 135 135 135s135-60.601562 135-135c0-74.402344-60.601562-135-135-135zm0 0" fill="#ff728b"/><path d="m391 256c0 74.398438-60.601562 135-135 135v-270c74.398438 0 135 60.597656 135 135zm0 0" fill="#ff3f62"/><path d="m361 256c0 57.898438-47.101562 105-105 105s-105-47.101562-105-105 47.101562-105 105-105 105 47.101562 105 105zm0 0" fill="#ececf1"/><path d="m361 256c0 57.898438-47.101562 105-105 105v-210c57.898438 0 105 47.101562 105 105zm0 0" fill="#d3d3d8"/><path d="m331 256c0 8.398438-6.597656 15-15 15h-60c-8.402344 0-15-6.601562-15-15v-60c0-8.402344 6.597656-15 15-15s15 6.597656 15 15v45h45c8.402344 0 15 6.597656 15 15zm0 0" fill="#00607f"/><path d="m331 256c0 8.398438-6.597656 15-15 15h-60v-90c8.402344 0 15 6.597656 15 15v45h45c8.402344 0 15 6.597656 15 15zm0 0" fill="#002c3c"/><g fill="#00607f"><path d="m271 15v61c0 8.398438-6.597656 15-15 15s-15-6.601562-15-15v-61c0-8.402344 6.597656-15 15-15s15 6.597656 15 15zm0 0"/><path d="m271 436v61c0 8.398438-6.597656 15-15 15s-15-6.601562-15-15v-61c0-8.402344 6.597656-15 15-15s15 6.597656 15 15zm0 0"/><path d="m76 271h-61c-8.289062 0-15-6.710938-15-15s6.710938-15 15-15h61c8.289062 0 15 6.710938 15 15s-6.710938 15-15 15zm0 0"/></g><path d="m497 271h-61c-8.289062 0-15-6.710938-15-15s6.710938-15 15-15h61c8.289062 0 15 6.710938 15 15s-6.710938 15-15 15zm0 0" fill="#002c3c"/><path d="m271 15v61c0 8.398438-6.597656 15-15 15v-91c8.402344 0 15 6.597656 15 15zm0 0" fill="#002c3c"/><path d="m271 436v61c0 8.398438-6.597656 15-15 15v-91c8.402344 0 15 6.597656 15 15zm0 0" fill="#002c3c"/></svg>